<svg width="28" height="28" viewBox="0 0 28 28" fill="none" xmlns="http://www.w3.org/2000/svg">
<path d="M14 2.88908C7.8778 2.88908 2.88892 7.87797 2.88892 14.0002C2.88892 20.1224 7.8778 25.1113 14 25.1113C20.1222 25.1113 25.1111 20.1224 25.1111 14.0002C25.1111 7.87797 20.1222 2.88908 14 2.88908ZM17.7334 16.5557C18.0556 16.878 18.0556 17.4113 17.7334 17.7335C17.5667 17.9002 17.3556 17.978 17.1445 17.978C16.9334 17.978 16.7222 17.9002 16.5556 17.7335L14 15.178L11.4445 17.7335C11.2778 17.9002 11.0667 17.978 10.8556 17.978C10.6445 17.978 10.4334 17.9002 10.2667 17.7335C9.94447 17.4113 9.94447 16.878 10.2667 16.5557L12.8222 14.0002L10.2667 11.4446C9.94447 11.1224 9.94447 10.5891 10.2667 10.2669C10.5889 9.94464 11.1222 9.94464 11.4445 10.2669L14 12.8224L16.5556 10.2669C16.8778 9.94464 17.4111 9.94464 17.7334 10.2669C18.0556 10.5891 18.0556 11.1224 17.7334 11.4446L15.1778 14.0002L17.7334 16.5557Z" fill="#767676"/>
</svg>
